Coordinates
version=1
nRows=27
nColumns=12
inDegrees=yes

Units are S.I. units (second, meters, Newtons, ...)
Angles are in degrees

endheader
time	SC_y	SC_z	SC_x	AC_y	AC_z	AC_x	GH_y	GH_z	GH_yy	EL_x	PS_y
       0.0              -36.24         -2.761          2.873          60.82         -13.13         -14.57          54.32          85.28          105.5          85.11          121.3
   0.03892              -36.24          -2.76          2.879          60.81         -13.13         -14.56           54.3          85.27          105.5           85.1          121.3
   0.07785              -36.24         -2.759          2.886          60.81         -13.13         -14.56          54.28          85.25          105.5          85.09          121.3
    0.1168              -36.24         -2.757          2.893          60.81         -13.13         -14.56          54.26          85.24          105.5          85.07          121.3
    0.1557              -36.24         -2.756            2.9          60.81         -13.13         -14.55          54.23          85.22          105.4          85.06          121.3
    0.1946              -36.24         -2.755          2.908          60.81         -13.13         -14.55          54.21           85.2          105.4          85.05          121.3
    0.2335              -36.23         -2.753          2.916          60.81         -13.13         -14.55          54.18          85.18          105.4          85.04          121.3
    0.2725              -36.23         -2.752          2.925          60.81         -13.13         -14.54          54.16          85.16          105.4          85.02          121.3
    0.3114              -36.23          -2.75          2.935           60.8         -13.13         -14.54          54.13          85.14          105.4          85.01          121.3
    0.3503              -36.23         -2.749          2.946           60.8         -13.13         -14.53          54.09          85.12          105.4          84.99          121.3
    0.3892              -36.23         -2.747          2.957           60.8         -13.13         -14.53          54.06          85.09          105.4          84.98          121.3
    0.4282              -36.22         -2.745          2.969           60.8         -13.14         -14.52          54.02          85.06          105.4          84.96          121.3
    0.4671              -36.22         -2.743          2.982          60.79         -13.14         -14.52          53.98          85.04          105.3          84.94          121.3
     0.506              -36.22          -2.74          2.996          60.79         -13.14         -14.51          53.94           85.0          105.3          84.92          121.3
    0.5449              -36.22         -2.738          3.011          60.79         -13.14          -14.5          53.89          84.97          105.3          84.89          121.3
    0.5838              -36.21         -2.735          3.027          60.78         -13.14          -14.5          53.84          84.93          105.3          84.87          121.3
    0.6228              -36.21         -2.732          3.045          60.78         -13.14         -14.49          53.79          84.89          105.3          84.84          121.3
    0.6617               -36.2         -2.729          3.065          60.78         -13.14         -14.48          53.73          84.85          105.2          84.81          121.3
    0.7006               -36.2         -2.726          3.086          60.77         -13.14         -14.47          53.66           84.8          105.2          84.78          121.3
    0.7395               -36.2         -2.722          3.109          60.77         -13.14         -14.46          53.59          84.75          105.2          84.74          121.3
    0.7785              -36.19         -2.718          3.135          60.76         -13.14         -14.45          53.51          84.69          105.1           84.7          121.3
    0.8174              -36.18         -2.713          3.163          60.76         -13.15         -14.43          53.42          84.62          105.1          84.66          121.3
    0.8563              -36.18         -2.708          3.194          60.75         -13.15         -14.42          53.33          84.55          105.1          84.61          121.3
    0.8952              -36.17         -2.702          3.229          60.74         -13.15          -14.4          53.22          84.48          105.0          84.56          121.3
    0.9342              -36.16         -2.696          3.267          60.74         -13.15         -14.39           53.1          84.39          105.0           84.5          121.3
    0.9731              -36.15         -2.689           3.31          60.73         -13.15         -14.37          52.97          84.29          104.9          84.44          121.3
     1.012              -36.14         -2.681          3.358          60.72         -13.16         -14.34          52.82          84.18          104.8          84.36          121.3
